<svg width="300" height="426" viewBox="0 0 300 426" fill="none" xmlns="http://www.w3.org/2000/svg">
<path fill-rule="evenodd" clip-rule="evenodd" d="M157 77.7069C145.571 77.7069 141.415 64.0241 134.921 56.5153C130.276 51.143 122.347 52.7449 120 45.2238C114.098 26.3111 129.894 13 150.5 13C171.106 13 185 24.6743 188 42.2238C191 59.7733 177.606 77.7069 157 77.7069Z" fill="#191847"/>
<path fill-rule="evenodd" clip-rule="evenodd" d="M144.065 75.2443C137.589 79.1475 131.226 81.0333 128.24 80.2635C120.75 78.333 120.062 50.9351 125.857 40.1339C131.651 29.3328 161.442 24.625 162.943 46.0255C163.464 53.4529 160.346 60.0814 155.738 65.4901L164 104H140L144.065 75.2443Z" fill="#B28B67"/>
<path fill-rule="evenodd" clip-rule="evenodd" d="M161.383 30.9999C179.766 48.9999 161.313 68.1317 156.257 68.1317C155.93 65.5346 154.935 63.0083 153.476 60.6039C154.251 59.6004 154.71 58.3524 154.71 56.9999C154.71 53.6862 151.954 50.9999 148.553 50.9999C147.491 50.9999 146.492 51.262 145.62 51.7233C138.25 45.4379 129.007 41.0561 124.417 40.1945C116.434 38.6959 143 12.9999 161.383 30.9999Z" fill="#191847"/>
<path fill-rule="evenodd" clip-rule="evenodd" d="M172 187L134.369 310.024L116.14 414.648H101.847L121.109 187H172Z" fill="#997659"/>
<path fill-rule="evenodd" clip-rule="evenodd" d="M185.462 187C182.906 254.547 185.914 289.389 186.486 295.526C187.058 301.663 194.892 341.455 213.436 416.708L198.206 411.478C168.898 342.459 158.911 306.589 155.55 297.526C152.188 288.463 143.261 251.621 128.767 187H185.462Z" fill="#B28B67"/>
<path fill-rule="evenodd" clip-rule="evenodd" d="M210.55 410.284C211.622 409.813 212.896 410.29 213.295 411.391C214.023 413.398 215 416.409 215 418.106C215 420.811 214.099 426 214.099 426C210.961 426 157.697 426 157.697 426C157.697 426 155.498 418.732 160.235 418.152C164.972 417.573 168.105 417.106 168.105 417.106L194.32 405.419C194.835 405.189 195.437 405.43 195.652 405.951L197.337 410.039C197.337 410.039 201.722 412.085 204.463 412.085C206.132 412.085 208.754 411.074 210.55 410.284Z" fill="#E4E4E4"/>
<path fill-rule="evenodd" clip-rule="evenodd" d="M116.55 410.284C117.622 409.813 118.896 410.29 119.295 411.391C120.023 413.398 121 416.409 121 418.106C121 420.811 120.099 426 120.099 426C116.961 426 63.6969 426 63.6969 426C63.6969 426 61.4984 418.732 66.2352 418.152C70.9719 417.573 74.105 417.106 74.105 417.106L100.32 405.419C100.835 405.189 101.437 405.43 101.652 405.951L103.337 410.039C103.337 410.039 107.722 412.085 110.463 412.085C112.132 412.085 114.754 411.074 116.55 410.284Z" fill="#E4E4E4"/>
<path fill-rule="evenodd" clip-rule="evenodd" d="M177 187L161 249.68H112.13L119.416 187H177Z" fill="#69A1AC"/>
<path fill-rule="evenodd" clip-rule="evenodd" d="M186 187C193.897 210.671 189 249.68 189 249.68H139.13L125.416 187H186Z" fill="#89C5CC"/>
<path fill-rule="evenodd" clip-rule="evenodd" d="M55.6277 198.758L83.9556 171.123L93.3643 187.403L63.907 204.77C56.5209 216.405 52.1829 221.432 50.893 219.852C49.8054 218.519 50.3039 217.058 50.763 215.713C51.1207 214.665 51.4545 213.687 50.9961 212.894C49.9492 211.082 44.035 212.12 38.4648 213.344C32.8945 214.568 34.1834 211.832 35.3673 210.404C40.6318 206.156 47.3853 202.273 55.6277 198.758ZM222.602 238.908C219.672 232.963 209.692 175.02 209.692 175.02L188.795 175.102C188.795 175.102 208.149 237.583 209.692 241.406C211.696 246.372 208.292 253.587 205.984 258.48C205.627 259.237 205.296 259.938 205.015 260.567C208.218 262 209.757 260.268 211.378 258.442C213.21 256.379 215.149 254.197 219.712 256.32C221.475 257.14 223.143 258.109 224.773 259.057C230.403 262.329 235.575 265.336 242.611 260.994C243.726 260.306 244.949 257.715 241.995 255.69C234.638 250.645 224.035 241.815 222.602 238.908Z" fill="#B28B67"/>
<path fill-rule="evenodd" clip-rule="evenodd" d="M150.305 87.3321L141.658 85.8489C126.77 123.039 100.778 156.831 63.6816 187.225L91.7137 221.281C128.806 178.005 151.67 133.355 150.305 87.3321Z" fill="#191847"/>
<path fill-rule="evenodd" clip-rule="evenodd" d="M188 196H111C111 196 137.759 130.938 137.759 85.4607L160.986 82C179.24 111.358 184.395 147.505 188 196Z" fill="#DDE3E9"/>
<path fill-rule="evenodd" clip-rule="evenodd" d="M223 229C214.579 133.996 161.496 82 161.496 82L161.478 82.0164C161.475 82.0109 161.471 82.0055 161.468 82H159.952C157.231 82.0937 151.662 82.3377 151.662 82.3377L146.05 98.3769C145.159 127.71 135.649 216.606 135.649 216.606H186.05C185.964 220.682 185.775 224.815 185.469 229H223Z" fill="#2F3676"/>
<path fill-rule="evenodd" clip-rule="evenodd" d="M186.041 217C186.444 199.25 184.869 182.584 182.242 167.502C180.868 185.399 177.997 206.933 172 217H186.041Z" fill="black" fill-opacity="0.1"/>
<path fill-rule="evenodd" clip-rule="evenodd" d="M174.889 186L150 174.429V186H174.889Z" fill="white" fill-opacity="0.2"/>
</svg>
