<svg width="314" height="548" viewBox="0 0 314 548" fill="none" xmlns="http://www.w3.org/2000/svg">
<path fill-rule="evenodd" clip-rule="evenodd" d="M167.308 97.4795C159.839 102.536 152.501 104.979 149.056 103.982C140.419 101.481 139.624 65.9867 146.308 51.9937C152.991 38.0008 187.349 31.9018 189.081 59.6262C189.682 69.2485 186.085 77.8358 180.771 84.8429L190.3 134.733H162.62L167.308 97.4795Z" fill="#B28B67"/>
<path fill-rule="evenodd" clip-rule="evenodd" d="M157.241 36.7536C161.023 35.4581 166.514 35.0188 168.824 35.316C167.51 31.78 166.988 27.8405 167.414 24.0047C167.827 20.2775 169.309 17.1039 170.681 13.7783C171.313 12.2455 172.029 10.7209 173.097 9.54848C174.185 8.35398 175.562 7.56551 177.006 7.18935C178.484 6.8043 180.029 6.83636 181.509 7.18579C182.164 7.34035 182.752 7.67663 183.394 7.86356C184.051 8.05509 184.37 7.59277 184.848 7.12815C185.998 6.00863 187.684 5.45597 189.139 5.25818C190.772 5.03636 192.466 5.313 194.023 5.91589C195.539 6.5028 196.995 7.45586 198.091 8.84429C198.579 9.46232 199.022 10.1658 199.309 10.9424C199.428 11.2612 199.447 11.45 199.73 11.5667C199.992 11.6748 200.298 11.678 200.569 11.7808C203.182 12.775 205.416 15.0431 206.633 17.9552C207.343 19.6541 207.679 22.6453 207.587 25.9979C207.495 29.3505 204.8 38.0985 202.279 41.2893C200.029 44.1374 196.722 46.0169 193.53 46.8396C195.649 49.5596 197.059 52.9584 198.102 56.4152C199.234 60.17 199.935 64.0715 200.194 68.0468C200.44 71.8237 200.463 75.8178 199.675 79.5141C198.937 82.9707 197.36 85.8064 194.728 87.6053C193.522 88.4294 192.224 89.0485 190.919 89.6143C189.633 90.1719 188.343 90.714 186.996 91.0269C184.447 91.6188 181.509 91.5172 179.545 89.2376C178.837 88.4158 178.059 87.3832 177.542 86.3793C177.357 86.0183 177.245 85.7822 177.47 85.4293C177.74 85.0066 178.178 84.6828 178.525 84.3522C180.504 82.467 181.73 79.9504 182.039 76.9597C182.352 73.9252 181.627 70.0084 179 68.6841C175.758 67.0493 172.187 68.9258 169.306 70.6749C168.081 65.8196 165.566 61.448 161.624 59.2209C157.262 56.757 152.257 56.4686 147.775 54.3546C146.607 53.8037 145.417 53.1784 144.557 52.0559C144.198 51.5868 143.776 50.9783 143.633 50.3579C143.444 49.5429 143.912 48.8596 144.274 48.2242C146.19 44.8553 153.459 38.0491 157.241 36.7536Z" fill="#191847"/>
<path fill-rule="evenodd" clip-rule="evenodd" d="M198.373 238.374L156.125 401.902L136.254 524.681H116.31L136.219 238.374H198.373Z" fill="#997659"/>
<path fill-rule="evenodd" clip-rule="evenodd" d="M217.36 238.374C214.412 323.325 215.574 369.661 216.234 377.379C216.894 385.097 220.64 436.789 246.163 527.272H225.419C191.617 440.469 179.817 388.777 175.94 377.379C172.064 365.981 160.614 319.645 143.897 238.374H217.36Z" fill="#B28B67"/>
<path fill-rule="evenodd" clip-rule="evenodd" d="M199.28 238.374C188.291 294.644 169.284 384.466 142.26 507.839H113.089C110.934 381.208 120.1 297.864 135.973 238.374H199.28Z" fill="#69A1AC"/>
<path fill-rule="evenodd" clip-rule="evenodd" d="M217.508 238.374C214.621 323.325 222.103 407.019 245.279 509.162H214.155C180.291 423.654 156.02 340.374 139.432 238.374H217.508Z" fill="#89C5CC"/>
<path fill-rule="evenodd" clip-rule="evenodd" d="M249.12 544.114L248.047 524.687C248.011 524.031 247.362 523.586 246.723 523.744C236.716 526.218 222.794 520.794 222.794 520.794C208.599 532.089 187.99 537.132 181.405 538.518C180.265 538.758 179.543 539.897 179.829 541.026L181.589 548H222.794H246.831L249.12 544.114Z" fill="#191847"/>
<path fill-rule="evenodd" clip-rule="evenodd" d="M140.707 544.114L139.634 524.687C139.598 524.031 138.949 523.586 138.31 523.744C128.303 526.218 114.381 520.794 114.381 520.794C100.186 532.089 79.5765 537.132 72.992 538.518C71.8517 538.758 71.1304 539.897 71.4156 541.026L73.176 548H114.381H138.418L140.707 544.114Z" fill="#191847"/>
<path fill-rule="evenodd" clip-rule="evenodd" d="M99.9388 136.922L139.971 161.55L125.188 179.373L96.0995 149.456C80.776 144.713 73.7684 141.243 75.0767 139.046C76.1798 137.194 77.9588 137.258 79.5976 137.317C80.8741 137.363 82.0655 137.406 82.7858 136.538C84.4307 134.555 81.2923 127.621 78.0635 121.184C74.8347 114.746 78.2873 115.307 80.2616 116.233C86.7226 121.146 93.2817 128.042 99.9388 136.922ZM59.6889 171.479L77.2733 182.329L76.2719 202.151C76.2719 202.151 64.8831 192.918 55.085 189.849C42.5919 185.936 37.5373 182.948 31.4324 174.211C28.1661 169.536 25.3938 160.138 28.5029 157.077C29.6955 155.903 34.1393 158.677 38.6734 161.507C42.1289 163.664 45.6369 165.853 47.7982 166.353C50.7076 167.026 50.367 162.79 50.0948 159.405C49.8995 156.976 49.7394 154.985 50.8408 155.561C55.9879 155.66 59.6889 171.479 59.6889 171.479Z" fill="#997659"/>
<path fill-rule="evenodd" clip-rule="evenodd" d="M159.467 156.064C145.445 155.897 126.747 152.571 106.796 138.346L98.9608 157.972C112.722 173.313 132.073 185.918 148.992 185.384C162.326 184.964 169.14 166.847 159.467 156.064Z" fill="#2026A2"/>
<path fill-rule="evenodd" clip-rule="evenodd" d="M197.285 290.529C210.615 288.576 222.863 286.783 230.122 288.388C238.266 258.678 231.504 239.972 225.261 222.704C221.498 212.296 217.924 202.411 217.917 190.953C217.894 157.588 194.044 106.231 190.535 106.231H189.528H161.717H158.534C157.103 126.878 150.996 149.233 144.851 171.732C143.416 176.986 141.978 182.248 140.598 187.498C117.341 193.428 65.6992 172.786 65.6992 172.786C65.6992 172.786 52.6624 203.082 53.646 215.983C83.7047 233.62 109.468 241.484 130.693 242.003C130.018 256.149 131.551 269.61 136.701 281.91C143.601 298.39 172.337 294.182 197.285 290.529Z" fill="#1F28CF"/>
</svg>
