<svg width="446" height="545" viewBox="0 0 446 545" fill="none" xmlns="http://www.w3.org/2000/svg">
<path fill-rule="evenodd" clip-rule="evenodd" d="M199.226 96.1334C207.499 101.12 215.628 103.53 219.444 102.546C229.012 100.08 229.892 65.0754 222.489 51.2757C215.085 37.4759 177.024 31.4611 175.106 58.8028C174.44 68.2922 178.425 76.7609 184.312 83.6712L173.756 132.872H204.419L199.226 96.1334Z" fill="#915B3C"/>
<path fill-rule="evenodd" clip-rule="evenodd" d="M181.956 89.8265C178.107 72.7051 167.144 61.0339 168.818 53.3814C170.493 45.7288 177.744 43.8636 177.744 43.8636C177.744 43.8636 181.494 28.692 201.935 30.9574C222.375 33.2229 234.851 41.7116 229.463 60.3906C224.511 60.3906 218.532 58.5995 210.265 61.6682C206.33 63.1288 204.636 70.7267 204.636 70.7267H200.9C200.9 70.7267 195.461 61.71 190.174 64.0999C184.888 66.4898 187.771 75.7101 187.771 75.7101L185.931 89.8265H181.956Z" fill="#191847"/>
<path fill-rule="evenodd" clip-rule="evenodd" d="M88.1558 292.575C76.866 292.575 67.7139 301.727 67.7139 313.017V430.558C67.7139 441.848 76.866 451 88.1558 451H235.082C246.372 451 255.524 441.848 255.524 430.558V313.017C255.524 301.727 246.372 292.575 235.082 292.575H88.1558ZM108.598 328.348C105.775 328.348 103.487 330.636 103.487 333.459V410.116C103.487 412.939 105.775 415.227 108.598 415.227H214.64C217.463 415.227 219.751 412.939 219.751 410.116V333.459C219.751 330.636 217.463 328.348 214.64 328.348H108.598Z" fill="#C5CFD6"/>
<path fill-rule="evenodd" clip-rule="evenodd" d="M382.212 444.612C357.022 413.852 339.978 391.048 331.08 376.2C315.845 350.777 303.375 328.155 299.44 319.513C290.056 298.906 321.043 289.257 328.056 298.868C338.67 313.416 361.339 359.194 396.062 436.202L382.212 444.612Z" fill="#B28B67"/>
<path fill-rule="evenodd" clip-rule="evenodd" d="M330.594 435.669L283.715 317.663C273.689 296.152 322.109 282.012 329.477 292.023C346.207 314.751 385.968 404.41 390.952 411.182L330.594 435.669Z" fill="#2F3676"/>
<path fill-rule="evenodd" clip-rule="evenodd" d="M205.74 412.003C214.871 398.683 248.087 353.868 266.179 335.326C271.377 329.997 276.45 324.883 281.248 320.117C295.509 305.952 323.907 329.761 309.673 342.664C274.223 374.796 222.499 418.174 218.178 422.042C212.121 427.462 200 420.375 205.74 412.003Z" fill="#915B3C"/>
<path fill-rule="evenodd" clip-rule="evenodd" d="M211.655 406.52C210.771 405.314 209.057 405.028 207.912 405.991C205.823 407.748 202.819 410.454 201.735 412.332C200.007 415.325 197.69 421.642 197.69 421.642C201.162 423.647 260.095 457.672 260.095 457.672C260.095 457.672 267.171 451.035 262.3 447.368C257.43 443.701 254.261 441.182 254.261 441.182L232.721 411.505C232.298 410.923 231.478 410.804 230.908 411.243L226.432 414.69C226.432 414.69 220.273 414.152 217.24 412.401C215.393 411.335 213.138 408.542 211.655 406.52Z" fill="#E4E4E4"/>
<path fill-rule="evenodd" clip-rule="evenodd" d="M374.917 438.587C373.548 437.985 371.921 438.594 371.411 440.001C370.481 442.566 369.232 446.412 369.232 448.58C369.232 452.036 370.384 458.666 370.384 458.666C374.393 458.666 442.444 458.666 442.444 458.666C442.444 458.666 445.253 449.38 439.201 448.639C433.149 447.899 429.146 447.302 429.146 447.302L395.654 432.371C394.996 432.078 394.227 432.386 393.952 433.051L391.799 438.273C391.799 438.273 386.197 440.887 382.694 440.887C380.562 440.887 377.212 439.597 374.917 438.587Z" fill="#E4E4E4"/>
<path fill-rule="evenodd" clip-rule="evenodd" d="M266.846 323.558C266.846 323.558 208.401 314.036 188.551 310.536C150.832 303.885 139.833 283.588 146.336 239.301L215.833 239.301C229.629 243.285 331.117 288.578 331.117 288.578C343.29 294.621 341.023 312.439 338.798 318.309C338.662 318.668 277.233 423.803 277.233 423.803L220.382 387.586L266.953 327.825C266.953 327.825 268.798 324.109 266.846 323.558Z" fill="#5C63AB"/>
<path fill-rule="evenodd" clip-rule="evenodd" d="M312.609 252.503L271.855 222.576L262.846 244.846L303.203 261.581C314.616 274.989 320.999 280.578 322.35 278.349C323.489 276.469 322.598 274.71 321.778 273.089C321.139 271.827 320.543 270.649 320.982 269.564C321.984 267.086 329.651 267.347 336.916 267.905C344.182 268.464 342.064 265.231 340.313 263.635C332.897 259.196 323.662 255.485 312.609 252.503ZM98.8854 305.234C102.629 297.638 115.379 223.609 115.379 223.609L142.078 223.714C142.078 223.714 117.35 303.54 115.379 308.424C112.819 314.769 117.168 323.988 120.117 330.239C120.573 331.206 120.996 332.102 121.354 332.906C117.263 334.736 115.297 332.523 113.225 330.19C110.884 327.555 108.408 324.766 102.578 327.479C100.325 328.527 98.1938 329.766 96.1115 330.976C88.9185 335.157 82.3107 338.998 73.3216 333.451C71.8965 332.572 70.3348 329.261 74.108 326.674C83.5084 320.228 97.055 308.947 98.8854 305.234Z" fill="#915B3C"/>
<path fill-rule="evenodd" clip-rule="evenodd" d="M191.254 111.577L202.301 109.682C243.292 145.092 260.128 213.118 310.372 249.155L298.279 264.145C211.114 253.353 189.51 170.377 191.254 111.577Z" fill="#E87613"/>
<path fill-rule="evenodd" clip-rule="evenodd" d="M143.094 250.413C143.094 250.413 209.54 250.413 240.846 250.413C245.313 250.413 244.471 243.963 243.826 240.709C236.374 203.146 207.283 162.656 207.283 109.186L179.087 104.765C155.765 142.274 147.699 188.455 143.094 250.413Z" fill="#DDE3E9"/>
<path fill-rule="evenodd" clip-rule="evenodd" d="M132.101 277.244C127.708 287.795 123.4 297.002 119.34 304.074H98.3758C96.1202 231.145 123.731 175.029 146.838 141.194C141.708 140.827 137.077 138.68 134.15 133.398C123.844 114.802 127.566 104.564 138.58 101.198C144.636 99.3476 150.332 100.611 157.15 102.123C162.729 103.36 169.06 104.764 176.954 104.765C176.954 104.765 176.954 104.765 176.954 104.765L176.955 104.765C176.957 104.765 176.96 104.765 176.963 104.765C177.728 104.765 178.424 104.816 179.056 104.914L188.412 105.448C188.412 105.448 226.401 234.195 209.366 277.244H132.101Z" fill="#FF9B21"/>
<path fill-rule="evenodd" clip-rule="evenodd" d="M132.102 277.244C137.866 263.399 143.777 247.24 149.465 230.551C151.583 248.93 155.109 267.389 160.98 277.244H132.102Z" fill="black" fill-opacity="0.1"/>
</svg>
